<?xml version="1.0" standalone="no"?><!DOCTYPE svg PUBLIC "-//W3C//DTD SVG 1.1//EN" "http://www.w3.org/Graphics/SVG/1.1/DTD/svg11.dtd"><svg t="1496633768384" class="icon" style="" viewBox="0 0 1024 1024" version="1.1" xmlns="http://www.w3.org/2000/svg" p-id="1274" xmlns:xlink="http://www.w3.org/1999/xlink" width="200" height="200"><defs><style type="text/css"></style></defs><path d="M869.041766 291.096844l-44.680619 0L824.361147 157.068292c0-27.110451-18.815531-49.161676-41.936111-49.161676L238.71994 107.906615c-23.125697 0-41.939181 22.052249-41.939181 49.161676l0 134.028553-44.680619 0L152.10014 157.068292c0-51.744501 38.860053-93.843318 86.6198-93.843318l543.705096 0c47.755654 0 86.61673 42.097794 86.61673 93.843318L869.041766 291.096844 869.041766 291.096844zM869.041766 291.096844" p-id="1275"></path><path d="M862.125239 891.909589l-69.555146 0c-50.672076 0-91.901083-42.862203-91.901083-95.540983l0-0.845251L319.612295 795.523355l0 0.845251c0 52.67878-41.229007 95.540983-91.90006 95.540983l-69.557192 0c-50.67617 0-91.90006-42.862203-91.90006-95.540983L66.254983 364.3011c0-52.682873 41.224914-95.544053 91.90006-95.544053l69.557192 0c50.671053 0 91.90006 42.86118 91.90006 95.544053l0 173.8587 380.492874-0.402159 0.562818-173.525102c0-52.613288 41.229007-95.474468 91.905176-95.474468l69.552076 0c50.67617 0 91.901083 42.86118 91.901083 95.544053l0 432.067506C954.027345 849.047386 912.801409 891.909589 862.125239 891.909589L862.125239 891.909589zM274.930653 750.842737l470.417953 0 0 45.525869c0 28.043706 21.184485 50.860365 47.220465 50.860365l69.555146 0c26.037003 0 47.220465-22.816658 47.220465-50.860365L909.34468 364.3011c0-28.046776-21.184485-50.863435-47.220465-50.863435l-69.552076 0c-26.040073 0-47.224558 22.815635-47.224558 50.863435l-0.707105 218.089064-469.710848 0.49835L274.92963 364.3011c0-28.046776-21.183462-50.863435-47.219441-50.863435l-69.557192 0c-26.03598 0-47.219441 22.815635-47.219441 50.863435l0 432.067506c0 28.043706 21.184485 50.860365 47.219441 50.860365l69.557192 0c26.037003 0 47.219441-22.816658 47.219441-50.860365L274.92963 750.842737 274.930653 750.842737zM274.930653 750.842737" p-id="1276"></path></svg>