<?xml version="1.0" standalone="no"?><!DOCTYPE svg PUBLIC "-//W3C//DTD SVG 1.1//EN" "http://www.w3.org/Graphics/SVG/1.1/DTD/svg11.dtd"><svg t="1496633802472" class="icon" style="" viewBox="0 0 1024 1024" version="1.1" xmlns="http://www.w3.org/2000/svg" p-id="1609" xmlns:xlink="http://www.w3.org/1999/xlink" width="200" height="200"><defs><style type="text/css"></style></defs><path d="M1001.923704 358.953302l0 521.235338c0 44.646849-36.193317 80.84119-80.84119 80.84119l-80.82891 0c-44.647873 0-80.84119-36.19434-80.84119-80.84119l0-25.604144L264.650007 854.584496l0 25.604144c0 44.646849-36.19434 80.84119-80.84119 80.84119l-80.82891 0c-44.646849 0-80.84119-36.19434-80.84119-80.84119L22.138718 358.953302c0-44.646849 36.19434-80.84119 80.84119-80.84119l80.82891 0c44.646849 0 80.84119 36.19434 80.84119 80.84119L264.650007 596.723613l494.762407 0L759.412414 358.953302c0-44.646849 36.193317-80.84119 80.84119-80.84119l80.82891 0C965.730387 278.112112 1001.923704 314.306452 1001.923704 358.953302zM266.69662 358.953302 266.69662 594.677001l490.669182 0L757.365802 358.953302c0-44.646849 38.239929-82.887802 82.887802-82.887802l62.907749 0L903.161353 127.777175c0-41.256636-33.44574-74.701352-74.701352-74.701352L196.607308 53.075823c-41.256636 0-74.701352 33.444716-74.701352 74.701352l0 148.288325 61.902862 0C228.455667 276.0655 266.69662 314.306452 266.69662 358.953302z" p-id="1610" fill="#dbdbdb"></path></svg>